# xmcd CD database file
#
# Track frame offsets:
#	225
#	37672
#	63874
#	133329
#	197980
#	232584
#
# Disc length: 3457 seconds
#
# Revision: 0
# Processed by: cddbd v1.5.2PL0 Copyright (c) Steve Scherf et al.
# Submitted via: CDex 1.70beta2
#
DISCID=470d7e06
DTITLE=Uwe Oberg and Evan Parker - Full Bloom
DYEAR=2010
DGENRE=Jazz
TTITLE0=Red, The Dark Violet
TTITLE1=Amply Spiny
TTITLE2=Alternate
TTITLE3=Lightly Odourous
TTITLE4=Multiple, At Last Back
TTITLE5=Very Short, Seldom Extended
EXTD=YEAR: 2010
EXTT0=
EXTT1=
EXTT2=
EXTT3=
EXTT4=
EXTT5=
PLAYORDER=
